<svg width="18" height="19" viewBox="0 0 18 19" fill="none" xmlns="http://www.w3.org/2000/svg">
<path d="M10.2025 0.86559C9.87211 0.568751 9.44365 0.404541 8.9995 0.404541C8.55535 0.404541 8.12688 0.568751 7.7965 0.86559L1.1965 6.79599C1.00884 6.96474 0.858775 7.17107 0.756028 7.40157C0.653282 7.63208 0.600155 7.88162 0.600098 8.13399V16.6C0.600098 17.0774 0.78974 17.5352 1.12731 17.8728C1.46487 18.2103 1.92271 18.4 2.4001 18.4H4.8001C5.27749 18.4 5.73532 18.2103 6.07289 17.8728C6.41046 17.5352 6.6001 17.0774 6.6001 16.6V11.8C6.6001 11.6409 6.66331 11.4882 6.77583 11.3757C6.88835 11.2632 7.04097 11.2 7.2001 11.2H10.8001C10.9592 11.2 11.1118 11.2632 11.2244 11.3757C11.3369 11.4882 11.4001 11.6409 11.4001 11.8V16.6C11.4001 17.0774 11.5897 17.5352 11.9273 17.8728C12.2649 18.2103 12.7227 18.4 13.2001 18.4H15.6001C16.0775 18.4 16.5353 18.2103 16.8729 17.8728C17.2105 17.5352 17.4001 17.0774 17.4001 16.6V8.13399C17.4 7.88162 17.3469 7.63208 17.2442 7.40157C17.1414 7.17107 16.9914 6.96474 16.8037 6.79599L10.2037 0.86559H10.2025Z" fill="#D9D9D9"/>
</svg>
