<svg width="60" height="60" viewBox="0 0 60 60" fill="none" xmlns="http://www.w3.org/2000/svg">
<path d="M59.7656 29.9121C59.7656 46.4062 46.377 59.7949 29.8828 59.7949C13.418 59.7949 0 46.4062 0 29.9121C0 13.4473 13.418 0.0292969 29.8828 0.0292969C46.377 0.0292969 59.7656 13.4473 59.7656 29.9121ZM14.2969 43.3594C14.2969 44.4727 14.8535 45.2637 16.084 45.2637H43.6816C44.9121 45.2637 45.4688 44.4727 45.4688 43.3594C45.4688 40.0781 40.4883 31.4941 29.8828 31.4941C19.2773 31.4941 14.2969 40.0781 14.2969 43.3594ZM22.1191 20.5078C22.1191 25.3711 25.6055 28.9746 29.8828 29.0039C34.1602 29.0332 37.6465 25.3711 37.6465 20.5078C37.6465 15.9961 34.1602 12.2461 29.8828 12.2461C25.6055 12.2461 22.1191 15.9961 22.1191 20.5078Z" fill="black" fill-opacity="0.85"/>
</svg>
