<svg width="18" height="16" viewBox="0 0 18 16" fill="none" xmlns="http://www.w3.org/2000/svg">
<g clip-path="url(#clip0_71_38)">
<path d="M2.7129 16H15.1476C16.9539 16 17.8675 15.116 17.8675 13.3821V2.63832C17.8675 0.904365 16.9539 0.0203857 15.1476 0.0203857H2.7129C0.913597 0.0203857 0 0.897563 0 2.63832V13.3821C0 15.1228 0.913597 16 2.7129 16ZM2.61526 14.7964C1.72259 14.7964 1.2344 14.334 1.2344 13.4365V5.32427C1.2344 4.41987 1.72259 3.96428 2.61526 3.96428H15.2383C16.124 3.96428 16.6261 4.41987 16.6261 5.32427V13.4365C16.6261 14.334 16.124 14.7964 15.2383 14.7964H2.61526Z" fill="black" fill-opacity="0.85"/>
<path d="M4.10062 7.17383H13.7806C14.0595 7.17383 14.2687 6.96303 14.2687 6.69105C14.2687 6.43265 14.0595 6.22864 13.7806 6.22864H4.10062C3.81468 6.22864 3.60547 6.43265 3.60547 6.69105C3.60547 6.96303 3.81468 7.17383 4.10062 7.17383ZM4.10062 9.85297H13.7806C14.0595 9.85297 14.2687 9.64895 14.2687 9.38376C14.2687 9.11857 14.0595 8.90777 13.7806 8.90777H4.10062C3.81468 8.90777 3.60547 9.11857 3.60547 9.38376C3.60547 9.64895 3.81468 9.85297 4.10062 9.85297ZM4.10062 12.5321H10.3354C10.6144 12.5321 10.8236 12.3281 10.8236 12.0697C10.8236 11.7977 10.6144 11.5869 10.3354 11.5869H4.10062C3.81468 11.5869 3.60547 11.7977 3.60547 12.0697C3.60547 12.3281 3.81468 12.5321 4.10062 12.5321Z" fill="black" fill-opacity="0.85"/>
</g>
<defs>
<clipPath id="clip0_71_38">
<rect width="18" height="16" fill="white"/>
</clipPath>
</defs>
</svg>
