<svg width="20" height="20" viewBox="0 0 20 20" fill="none" xmlns="http://www.w3.org/2000/svg">
<path d="M10 17.7777C12.9148 17.7777 15.2778 14.2955 15.2778 9.99995C15.2778 5.7044 12.9148 2.22217 10 2.22217C7.08517 2.22217 4.72223 5.7044 4.72223 9.99995C4.72223 14.2955 7.08517 17.7777 10 17.7777Z" fill="#A57939"/>
<path fill-rule="evenodd" clip-rule="evenodd" d="M10 17.7778C9.99583 17.7778 9.99472 17.7717 9.99889 17.7706C12.3503 16.9834 14.1089 13.8095 14.1089 10.0142C14.1089 6.21673 12.3481 3.04146 9.995 2.25646C9.97555 2.25035 9.97972 2.22229 10 2.22229C12.9147 2.22229 15.2778 5.70451 15.2778 10.0001C15.2778 14.2956 12.9147 17.7778 10 17.7778Z" fill="#6A462F"/>
<path d="M9.99889 17.7706L10.0869 18.0339L9.99889 17.7706ZM13.8311 10.0139C13.8311 11.8703 13.4006 13.5667 12.6908 14.8889C11.9797 16.2136 10.9997 17.1422 9.91056 17.5067L10.0869 18.0336C11.3492 17.6108 12.4244 16.5592 13.1803 15.1514C13.9378 13.7408 14.3867 11.9528 14.3867 10.0139H13.8311ZM9.90695 2.51946C10.9969 2.88335 11.9775 3.81168 12.6897 5.13668C13.4003 6.4589 13.8311 8.15612 13.8311 10.0139H14.3867C14.3867 8.0739 13.9372 6.28474 13.1792 4.8739C12.4225 3.46557 11.3461 2.41418 10.0828 1.99279L9.90695 2.51974V2.51946ZM10 2.50001C11.3381 2.50001 12.5811 3.29918 13.5022 4.65612C14.4219 6.01196 15 7.90057 15 10H15.5556C15.5556 7.80418 14.9519 5.80362 13.9619 4.34446C12.9722 2.8864 11.5769 1.94446 10 1.94446V2.50001ZM15 10C15 12.0997 14.4222 13.9881 13.5022 15.3436C12.5811 16.7008 11.3381 17.5 10 17.5V18.0556C11.5769 18.0556 12.9725 17.1133 13.9619 15.6556C14.9519 14.1967 15.5556 12.1964 15.5556 10H15ZM10.0828 1.99307C10.1409 2.01306 10.1901 2.05298 10.2217 2.10576C10.2532 2.15853 10.2651 2.22077 10.2552 2.28145C10.2453 2.34214 10.2142 2.39737 10.1675 2.43737C10.1208 2.47736 10.0615 2.49955 10 2.50001V1.94446C9.9293 1.94437 9.86093 1.96971 9.80738 2.01587C9.75383 2.06203 9.71867 2.12591 9.70833 2.19585C9.69 2.31696 9.75111 2.46807 9.90695 2.52001L10.0828 1.99307ZM9.91056 17.507C9.59806 17.6117 9.69111 18.0556 10 18.0556V17.5C10.3 17.5 10.3914 17.932 10.0869 18.0339L9.91056 17.507Z" fill="#6A462F"/>
<path fill-rule="evenodd" clip-rule="evenodd" d="M9.99999 16.9444C9.99999 16.9444 8.33333 13.8353 8.33333 9.99999C8.33333 6.17776 9.98888 3.07665 9.99999 3.05554C9.99194 3.07054 9.16666 4.61943 9.16666 6.52776C9.16666 8.44526 9.99999 9.99999 9.99999 9.99999C9.99999 9.99999 10.8333 11.5544 10.8333 13.4722C10.8333 15.3897 9.99999 16.9444 9.99999 16.9444Z" fill="#6A462F"/>
<path d="M10 16.9444L9.75528 17.0755C9.77903 17.1198 9.81434 17.1567 9.85743 17.1825C9.90052 17.2083 9.94979 17.2219 10 17.2219C10.0502 17.2219 10.0995 17.2083 10.1426 17.1825C10.1857 17.1567 10.221 17.1198 10.2447 17.0755L10 16.9444ZM10 3.05554L10.245 3.18637C10.2797 3.12139 10.2872 3.04528 10.2659 2.97477C10.2445 2.90426 10.196 2.84513 10.131 2.8104C10.066 2.77566 9.98988 2.76816 9.91937 2.78955C9.84886 2.81093 9.78974 2.85945 9.755 2.92443L10 3.05554ZM10 9.99998L10.2447 9.86859L10 9.99998ZM8.05556 9.99998C8.05556 11.9561 8.48028 13.7228 8.90278 14.9978C9.07243 15.5116 9.26701 16.0168 9.48583 16.5116C9.56437 16.6883 9.64727 16.863 9.73445 17.0355L9.74945 17.0644L9.75333 17.0722L9.75472 17.0744V17.0753H9.755L10 16.9444C10.2447 16.813 10.245 16.813 10.245 16.8133V16.813L10.2442 16.8119L10.2411 16.8061L10.2283 16.7811C10.2111 16.7477 10.1941 16.7142 10.1775 16.6805C10.1136 16.5502 10.0522 16.4186 9.99334 16.2858C9.78204 15.8076 9.59413 15.3195 9.43028 14.823C9.01972 13.5844 8.61111 11.8789 8.61111 9.99998H8.05556ZM9.755 2.92443C9.73722 2.95776 8.05556 6.10776 8.05556 9.99998H8.61111C8.61111 6.2472 10.24 3.19582 10.245 3.18665L9.755 2.92443ZM9.44445 6.52776C9.44445 5.61193 9.64278 4.77804 9.84417 4.16859C10.045 3.56026 10.2461 3.18415 10.245 3.18637L9.755 2.9247C9.74056 2.95137 8.88889 4.5497 8.88889 6.52748H9.44445V6.52776ZM10 9.99998C10.2447 9.86859 10.245 9.86859 10.245 9.86887V9.86859L10.2436 9.86609C10.2332 9.84644 10.2231 9.82663 10.2133 9.80665C10.1919 9.76332 10.1611 9.69832 10.1236 9.61415C10.0198 9.37924 9.92746 9.13942 9.84695 8.89554C9.64472 8.28526 9.44445 7.44776 9.44445 6.52776H8.88889C8.88889 7.52498 9.10528 8.42359 9.31945 9.07026C9.40578 9.33141 9.50478 9.58819 9.61611 9.8397C9.65647 9.93056 9.69907 10.0204 9.74389 10.1091L9.75167 10.1247C9.75278 10.1264 9.75334 10.128 9.75417 10.1289L9.75472 10.1303L9.755 10.1308L10 9.99998ZM10 9.99998L9.755 10.1311L9.75639 10.1339C9.76681 10.1535 9.7769 10.1733 9.78667 10.1933C9.80806 10.2364 9.83889 10.3014 9.87639 10.3855C9.95139 10.5544 10.0522 10.8 10.1531 11.1041C10.3553 11.7144 10.5556 12.5522 10.5556 13.4722H11.1111C11.1111 12.4747 10.8947 11.5761 10.6806 10.9294C10.5942 10.6683 10.4952 10.4115 10.3839 10.16C10.3412 10.0639 10.296 9.96896 10.2483 9.87526L10.2458 9.87082L10.2453 9.86943L10.245 9.86887L10 9.99998ZM10.5556 13.4722C10.5556 14.3922 10.3553 15.2297 10.1528 15.84C10.0724 16.0839 9.98012 16.3237 9.87639 16.5586C9.83855 16.6436 9.79853 16.7276 9.75639 16.8105L9.75528 16.813L10 16.9444L10.245 17.0755V17.0747C10.2456 17.0744 10.2456 17.0739 10.2458 17.0733C10.2467 17.0725 10.2472 17.0708 10.2483 17.0691L10.2564 17.0536C10.2631 17.0403 10.2731 17.0211 10.285 16.9966C10.3092 16.9472 10.3433 16.8758 10.3839 16.7844C10.4951 16.5329 10.594 16.2761 10.6803 16.015C10.8947 15.3678 11.1111 14.4694 11.1111 13.4722H10.5556Z" fill="#6A462F"/>
<path d="M10 17.7777C12.9148 17.7777 15.2778 14.2955 15.2778 9.99995C15.2778 5.7044 12.9148 2.22217 10 2.22217C7.08517 2.22217 4.72223 5.7044 4.72223 9.99995C4.72223 14.2955 7.08517 17.7777 10 17.7777Z" stroke="black" stroke-width="2"/>
<path d="M10 9.99999C10 9.99999 10.8333 11.5544 10.8333 13.4722C10.8333 15.39 10 16.9444 10 16.9444M10 9.99999C10 9.99999 9.16667 8.44554 9.16667 6.52776C9.16667 4.60999 10 3.05554 10 3.05554V9.99999Z" stroke="black" stroke-width="2" stroke-linecap="round" stroke-linejoin="round"/>
</svg>
