<?xml version="1.0" encoding="iso-8859-1"?>
<!-- Uploaded to: SVG Repo, www.svgrepo.com, Generator: SVG Repo Mixer Tools -->
<svg fill="#000000" height="800px" width="800px" version="1.1" id="Layer_1" xmlns="http://www.w3.org/2000/svg" xmlns:xlink="http://www.w3.org/1999/xlink" 
	 viewBox="0 0 512.001 512.001" xml:space="preserve">
<g>
	<g>
		<path d="M295.005,15.178h113.228V0H295.005c-36.368,0-65.956,29.587-65.956,65.956v57.663H103.768v60.714h18.79l21.892,327.668
			h209.676l21.892-327.668h18.79v-60.714H269.525V65.956c0-14.051,11.431-25.481,25.48-25.481h113.228V25.297H295.005
			c-22.419,0-40.659,18.239-40.659,40.659v57.663h-10.119V65.956C244.228,37.956,267.008,15.178,295.005,15.178z M269.525,138.796
			h110.105v30.358h-10.688h-7.123h-26.8v15.178h25.786l-3.592,53.763H256.002v15.178h99.227l-9.714,154.37H196.807V253.274h38.955
			v-15.178h-54.133v184.726h163.244l-4.944,74.002h-181.28l-20.878-312.491h25.811v-15.178h-26.825h-7.099h-10.712v-30.358H229.05
			H269.525z"/>
	</g>
</g>
</svg>