<svg width="71" height="75" viewBox="0 0 71 75" fill="none" xmlns="http://www.w3.org/2000/svg">
<g clip-path="url(#clip0_189_33)" filter="url(#filter0_dd_189_33)">
<path fill-rule="evenodd" clip-rule="evenodd" d="M55 15.1879C55 13.4273 53.5727 12 51.8121 12H19.1879C17.4273 12 16 13.4273 16 15.1879V47.8121C16 49.5727 17.4273 51 19.1879 51H51.8121C53.5727 51 55 49.5727 55 47.8121V15.1879Z" fill="white"/>
<path fill-rule="evenodd" clip-rule="evenodd" d="M39.2094 36.8602C39.3598 37.0665 39.4041 37.1388 39.4211 37.3222C39.4327 37.4499 39.4242 37.5229 39.383 37.6421L37.9838 41.6996C37.9183 41.8663 37.7828 42.0506 37.5859 42.2296H39.1129C38.9996 42.129 38.927 42.0094 38.9006 41.867C38.8767 41.7368 38.8776 41.6877 38.9059 41.5625L39.2163 40.5988H40.9934L41.2701 41.3414C41.2991 41.4191 41.3157 41.4914 41.323 41.5748C41.3475 41.8522 41.2585 42.0805 41.0383 42.2416H43.4321C43.1972 42.0324 42.9817 41.8135 42.86 41.5477L41.1122 36.8602H39.2094ZM44.3175 39.733L42.4364 37.0357L42.2451 36.8602H44.0992L45.356 38.8992L45.457 38.8168L46.2165 37.6877C46.4033 37.4103 46.3782 37.0882 46.1121 36.8602H47.8643L45.8388 39.7323L45.8378 41.816L46.1948 42.2406H44.0181L44.325 41.8223C44.325 41.1279 44.2995 40.4252 44.3175 39.733ZM34.369 36.8649L35.5717 36.8602H37.0323C37.8359 36.8602 38.4933 37.5175 38.4933 38.3208V38.5007C38.4933 39.304 37.8356 39.9166 37.0323 39.9412L36.3662 39.9613C36.9018 39.715 37.1261 39.0929 37.0591 38.5325C37.0056 38.0827 36.7738 37.6502 36.3879 37.6421L36.1445 37.637V41.6405C36.1445 41.7185 36.158 41.7509 36.1989 41.8195C36.2643 41.9283 36.3514 42.0371 36.4414 42.1459C36.4646 42.1742 36.4882 42.2026 36.5115 42.2309H34.4398C34.4709 42.1928 34.5014 42.1541 34.5304 42.1145C34.5933 42.0289 34.6489 41.938 34.6908 41.8368C34.7175 41.772 34.7307 41.7239 34.7307 41.6544V37.3537C34.7225 37.1294 34.4999 37.002 34.369 36.8649ZM40.7326 39.9H39.4617L40.0778 38.1437L40.7326 39.9ZM36.6373 23.4178L35.0795 24.9756L35.0018 25.0523L34.5068 25.548L33.3503 26.7048L33.2736 26.7825H33.2726L32.5426 27.5112V27.5124L32.4662 27.5889C32.2473 27.8078 32.0054 27.9874 31.7482 28.1292C31.6179 28.2009 31.4849 28.2626 31.3487 28.3148C31.0455 28.4318 30.7269 28.5003 30.4061 28.5205C30.2095 28.5337 30.0098 28.5286 29.8142 28.5044C29.3909 28.4541 28.9754 28.3189 28.5964 28.099C28.4341 28.0053 28.2674 27.9075 28.1293 27.7703C28.1284 27.7703 28.1284 27.7704 28.1274 27.7694C28.0972 27.7402 28.0671 27.71 28.0369 27.6785L25.1399 24.7818C25.0905 24.7274 25.0461 24.668 25.009 24.6044C24.914 24.444 24.8596 24.2588 24.8596 24.0591C24.8596 24.0279 24.8606 23.9965 24.8637 23.9663C24.8678 23.9197 24.8747 23.8754 24.8838 23.832C24.8879 23.815 24.892 23.798 24.8961 23.7817C24.898 23.7747 24.8999 23.7675 24.9021 23.7606C24.9423 23.6275 25.0081 23.5014 25.0987 23.3885C25.1229 23.3593 25.148 23.331 25.1754 23.3026L25.2257 23.2533L28.2473 20.2305H28.2485L30.0796 18.3997C30.4879 17.9914 31.1383 17.9732 31.5667 18.3471L36.6373 23.4178Z" fill="#0D5BA9"/>
<path fill-rule="evenodd" clip-rule="evenodd" d="M29.8137 38.721V41.597C29.8137 41.7137 29.8408 41.7344 29.9125 41.8281L30.2421 42.2575H28.6679C28.7563 42.1222 28.845 41.987 28.9337 41.8517C29.0023 41.7401 29.0315 41.702 29.0315 41.5724V37.5545L28.5893 36.8349H30.2204L32.8617 40.237V37.5259C32.8617 37.3963 32.8362 37.3545 32.7677 37.2428C32.679 37.1076 32.5865 36.9761 32.4981 36.8409H34.0707L33.7427 37.2702C33.6709 37.3639 33.6439 37.3847 33.6439 37.5014V42.3949C33.0482 42.3166 32.4934 42.171 32.0002 41.5404L29.8137 38.721ZM23.1362 36.8349H24.8088L26.2122 40.8598L27.403 37.5259C27.4243 37.3963 27.4058 37.3545 27.3564 37.2428C27.2904 37.1076 27.2199 36.9761 27.1542 36.8409H28.4031C28.3292 37.1129 28.2198 37.4117 28.1254 37.686L26.5126 42.3732C26.0722 42.2855 25.5813 42.1112 25.2017 41.7514C24.9161 41.4806 24.8145 41.1727 24.6736 40.806L23.3246 37.234C23.2715 37.0931 23.2061 36.9667 23.1362 36.8349ZM45.5703 26.3373L45.4936 26.415L42.0937 29.8662L38.5236 33.491C38.4098 33.6048 38.2906 33.7077 38.1644 33.8004C38.1607 33.8045 38.1556 33.8086 38.1503 33.8127C38.1333 33.8247 38.116 33.8379 38.0981 33.8498C38.0959 33.8517 38.094 33.853 38.0921 33.8549C37.5536 34.2401 36.8932 34.466 36.1814 34.466C35.302 34.466 34.5035 34.1209 33.9128 33.5595C33.9116 33.5586 33.9116 33.5586 33.9106 33.5576C33.8836 33.5344 33.8571 33.5111 33.831 33.4869L33.2171 32.8729L31.492 31.1469L30.8356 30.4902C30.9293 30.5056 31.024 30.5125 31.1186 30.5125L31.1985 30.5115C31.3083 30.5075 31.4184 30.4946 31.5263 30.4722C31.7027 30.4357 31.881 30.3754 32.0565 30.2926C32.4336 30.1143 32.7148 29.8671 32.8491 29.7363C32.9013 29.6847 32.9406 29.6413 32.957 29.6221L34.2839 28.3184L34.2887 28.3244L38.8513 23.8356L38.8752 23.8067L41.0916 21.6258C41.3901 21.3343 41.8559 21.2959 42.1946 21.529L42.7199 22.0542C42.7208 22.0542 42.7208 22.0551 42.7208 22.0551L45.5703 24.9047C45.5955 24.9298 45.6197 24.9559 45.6421 24.9833C45.9644 25.3815 45.9402 25.9684 45.5703 26.3373ZM28.0905 27.7319C28.1028 27.7441 28.115 27.7561 28.1273 27.768C28.2654 27.9051 28.433 28.0039 28.5962 28.0979C28.9752 28.3175 29.3907 28.4527 29.8144 28.503C30.0097 28.5273 30.2094 28.5323 30.406 28.5191C30.7264 28.499 31.0454 28.4304 31.3489 28.3134C31.4851 28.2612 31.6178 28.1995 31.748 28.1278C32.005 27.986 32.2471 27.8064 32.466 27.5875L32.5425 27.5111V27.5098L33.2725 26.7808H33.2734L33.3501 26.7034L33.5659 26.4876L34.1377 25.9158L34.5066 25.5469L35.0017 25.0509L35.0794 24.9742L38.2179 21.8353L39.5128 20.4329C39.5156 20.4297 39.5175 20.4278 39.5206 20.4247L39.5905 20.3564C39.9855 19.9611 40.6268 19.9611 41.0218 20.3564L41.7307 21.0651H41.7317L41.755 21.0883C41.4414 21.0732 41.1247 21.1861 40.8878 21.4179L38.4893 23.7771L38.4651 23.8067L34.2909 27.9143L34.2846 27.9092L32.7472 29.4195L32.7371 29.4318C32.7331 29.4368 32.6997 29.474 32.6444 29.5284C32.5233 29.6463 32.2701 29.8693 31.9317 30.0297C31.7782 30.102 31.6219 30.1546 31.4678 30.187C31.3759 30.2049 31.2822 30.2172 31.1904 30.2212H31.1209C30.8768 30.2212 30.6368 30.1668 30.4069 30.0618L29.8263 29.4821L29.6841 29.3409L29.6599 29.3158L29.3898 29.0456L28.0905 27.7319C28.0726 27.7142 28.0546 27.696 28.0364 27.6774L28.0905 27.7319Z" fill="#EC1F27"/>
<path d="M35.701 43.9298C35.701 44.145 35.5739 44.2525 35.3176 44.2525C35.2179 44.2525 35.1525 44.2579 35.121 44.2673C35.0918 44.2764 35.0764 44.2947 35.0764 44.3227C35.0764 44.3491 35.0918 44.3658 35.1229 44.3746C35.1544 44.3821 35.2198 44.3859 35.3176 44.3859C35.4714 44.3859 35.5768 44.4045 35.6346 44.4435C35.6944 44.4803 35.724 44.5454 35.724 44.64C35.724 44.7457 35.6944 44.8177 35.6327 44.8608C35.5739 44.9033 35.4676 44.9237 35.3176 44.9237C35.1638 44.9237 35.0566 44.9033 34.9968 44.8608C34.9399 44.8196 34.9094 44.7548 34.9094 44.6661C34.9094 44.5768 34.9446 44.5098 35.0138 44.4677C34.9635 44.4435 34.938 44.4026 34.938 44.345C34.938 44.2635 34.9874 44.2151 35.0877 44.2003C34.9833 44.1576 34.932 44.067 34.932 43.9298V43.9075C34.932 43.7053 35.0745 43.5867 35.3176 43.5867C35.3896 43.5867 35.4535 43.5996 35.5082 43.6235L35.6148 43.5292C35.646 43.5015 35.6601 43.5015 35.6906 43.5292L35.7029 43.542C35.7334 43.57 35.7334 43.5848 35.7029 43.6147L35.6195 43.6996C35.6736 43.7499 35.701 43.8182 35.701 43.9075V43.9298ZM40.603 43.9298C40.603 44.145 40.476 44.2525 40.2196 44.2525C40.1199 44.2525 40.0542 44.2579 40.0231 44.2673C39.9938 44.2764 39.9784 44.2947 39.9784 44.3227C39.9784 44.3491 39.9938 44.3658 40.025 44.3746C40.0564 44.3821 40.1218 44.3859 40.2196 44.3859C40.3734 44.3859 40.4788 44.4045 40.5367 44.4435C40.5964 44.4803 40.626 44.5454 40.626 44.64C40.626 44.7457 40.5964 44.8177 40.5348 44.8608C40.476 44.9033 40.3697 44.9237 40.2196 44.9237C40.0659 44.9237 39.9586 44.9033 39.8988 44.8608C39.8416 44.8196 39.8114 44.7548 39.8114 44.6661C39.8114 44.5768 39.8466 44.5098 39.9158 44.4677C39.8655 44.4435 39.8397 44.4026 39.8397 44.345C39.8397 44.2635 39.8891 44.2151 39.9901 44.2003C39.8856 44.1576 39.8344 44.067 39.8344 43.9298V43.9075C39.8344 43.7053 39.9765 43.5867 40.2196 43.5867C40.2917 43.5867 40.3552 43.5996 40.4106 43.6235L40.5169 43.5292C40.548 43.5015 40.5625 43.5015 40.5927 43.5292L40.6049 43.542C40.6354 43.57 40.6354 43.5848 40.6049 43.6147L40.5213 43.6996C40.5757 43.7499 40.603 43.8182 40.603 43.9075V43.9298ZM30.2608 44.6762C30.2844 44.6765 30.308 44.6853 30.3253 44.7029C30.3605 44.7382 30.3605 44.7973 30.3253 44.8325C30.308 44.8501 30.2844 44.8589 30.2608 44.8589H30.2602C30.2366 44.8589 30.213 44.8501 30.1954 44.8325C30.1602 44.7973 30.1602 44.7382 30.1954 44.7029C30.213 44.6853 30.2366 44.6762 30.2602 44.6762H30.2608ZM35.1361 44.4988C35.0783 44.5268 35.049 44.5787 35.049 44.6507C35.049 44.7715 35.1173 44.8033 35.3176 44.8033C35.5104 44.8033 35.5843 44.7715 35.5843 44.6457C35.5843 44.5287 35.5161 44.5082 35.3176 44.5082C35.238 44.5082 35.177 44.5048 35.1361 44.4988ZM40.0382 44.4988C39.9803 44.5268 39.9511 44.5787 39.9511 44.6507C39.9511 44.7715 40.0193 44.8033 40.2196 44.8033C40.4121 44.8033 40.4864 44.7715 40.4864 44.6457C40.4864 44.5287 40.4181 44.5082 40.2196 44.5082C40.1398 44.5082 40.0791 44.5048 40.0382 44.4988ZM41.8885 44.245C41.8885 44.4507 41.768 44.5378 41.5 44.5378C41.2874 44.5378 41.1519 44.4523 41.1519 44.2598C41.1519 44.067 41.278 43.989 41.5306 43.989H41.7488V43.8776C41.7488 43.7518 41.6636 43.7091 41.506 43.7091C41.4242 43.7091 41.3557 43.7166 41.3019 43.7295C41.2582 43.7386 41.2431 43.7276 41.2431 43.683V43.6682C41.2431 43.6257 41.2544 43.6147 41.2991 43.6053C41.3598 43.5924 41.4261 43.5867 41.4991 43.5867C41.7583 43.5867 41.8885 43.683 41.8885 43.8776V44.245ZM32.9568 44.1488V43.9758C32.9568 43.7166 33.0915 43.5867 33.3638 43.5867C33.6516 43.5867 33.7683 43.722 33.7683 43.9758V44.1488C33.7683 44.4082 33.6337 44.5378 33.3638 44.5378C33.0754 44.5378 32.9568 44.4026 32.9568 44.1488ZM32.1061 44.4192C32.1061 44.3727 32.1205 44.3617 32.1649 44.3714C32.2523 44.395 32.3435 44.4082 32.4376 44.4082C32.5807 44.4082 32.6398 44.3821 32.6398 44.3026C32.6398 44.2431 32.6084 44.2117 32.5194 44.1692L32.2932 44.0613C32.1746 44.0038 32.1205 43.9484 32.1205 43.8201C32.1205 43.6594 32.225 43.5867 32.4489 43.5867C32.5363 43.5867 32.6121 43.598 32.6804 43.6216C32.725 43.637 32.7364 43.6477 32.7364 43.6908V43.7072C32.7364 43.7537 32.7194 43.7647 32.6766 43.7518C32.6046 43.7276 32.5266 43.7166 32.4451 43.7166C32.3102 43.7166 32.258 43.7462 32.258 43.8201C32.258 43.8723 32.2913 43.9132 32.3558 43.9427L32.5923 44.0503C32.7175 44.1098 32.7773 44.1673 32.7773 44.2985C32.7773 44.4639 32.6662 44.5378 32.4269 44.5378C32.3398 44.5378 32.2523 44.5271 32.1649 44.5026C32.1187 44.49 32.1061 44.4727 32.1061 44.4337V44.4192ZM29.0304 44.1912C29.0304 44.3375 29.0914 44.4063 29.2792 44.4063C29.4663 44.4063 29.5252 44.3393 29.5252 44.1912V43.6644C29.5252 43.6185 29.5384 43.6053 29.5849 43.6053H29.6047C29.6554 43.6053 29.6645 43.6185 29.6645 43.6644V44.1912C29.6645 44.4155 29.5519 44.5378 29.2792 44.5378C29.021 44.5378 28.892 44.423 28.892 44.1912V43.6644C28.892 43.6185 28.9043 43.6053 28.9509 43.6053H28.9707C29.021 43.6053 29.0304 43.6185 29.0304 43.6644V44.1912ZM26.6259 44.1488V43.9758C26.6259 43.7169 26.7609 43.5867 27.0332 43.5867C27.321 43.5867 27.4377 43.722 27.4377 43.9758V44.1488C27.4377 44.4082 27.3031 44.5378 27.0332 44.5378C26.7448 44.5378 26.6259 44.4026 26.6259 44.1488ZM30.8417 43.9707C30.8417 43.7276 30.9729 43.5867 31.2547 43.5867C31.3163 43.5867 31.3695 43.5943 31.4179 43.6109C31.4626 43.6257 31.4739 43.6389 31.4739 43.6811V43.6996C31.4739 43.7462 31.4626 43.7591 31.4179 43.7443C31.3714 43.7276 31.3182 43.7182 31.2585 43.7182C31.0506 43.7182 30.9804 43.7996 30.9804 43.9726V44.1525C30.9804 44.3397 31.0641 44.4063 31.2698 44.4063C31.3327 44.4063 31.3887 44.3988 31.4371 44.3821C31.4796 44.3677 31.4921 44.3821 31.4921 44.4287V44.4472C31.4921 44.4862 31.4796 44.5007 31.4333 44.5136C31.3811 44.5303 31.3239 44.5378 31.2603 44.5378C30.9766 44.5378 30.8417 44.4155 30.8417 44.1541V43.9707ZM24.8093 44.0761C24.8093 44.2915 24.8993 44.4026 25.1348 44.4026C25.2317 44.4026 25.3207 44.3859 25.4025 44.3541C25.4453 44.3375 25.4575 44.3491 25.4575 44.395V44.4174C25.4575 44.4564 25.4471 44.4708 25.4025 44.4913C25.3333 44.5233 25.2449 44.5378 25.1386 44.5378C24.815 44.5378 24.6621 44.3931 24.6621 44.0761V43.7795C24.6621 43.459 24.815 43.2977 25.1348 43.2977C25.2279 43.2977 25.3132 43.3143 25.393 43.3455C25.4377 43.3621 25.4471 43.3794 25.4471 43.4162V43.4405C25.4471 43.4867 25.4283 43.4999 25.3893 43.4826C25.3116 43.4496 25.2241 43.4329 25.1301 43.4329C24.9052 43.4329 24.8093 43.5421 24.8093 43.7795V44.0761ZM28.1117 43.9707C28.1117 43.7276 28.2426 43.5867 28.5247 43.5867C28.5863 43.5867 28.6395 43.5943 28.6879 43.6109C28.7326 43.6257 28.7439 43.6389 28.7439 43.6811V43.6996C28.7439 43.7462 28.7326 43.7591 28.6879 43.7443C28.6414 43.7276 28.5882 43.7182 28.5285 43.7182C28.3206 43.7182 28.2504 43.7996 28.2504 43.9726V44.1525C28.2504 44.3397 28.3338 44.4063 28.5398 44.4063C28.6024 44.4063 28.6584 44.3988 28.7068 44.3821C28.7496 44.3677 28.7621 44.3821 28.7621 44.4287V44.4472C28.7621 44.4862 28.7496 44.5007 28.703 44.5136C28.6508 44.5303 28.5939 44.5378 28.5303 44.5378C28.2466 44.5378 28.1117 44.4155 28.1117 44.1541V43.9707ZM37.3632 44.1488V43.9758C37.3632 43.7169 37.4981 43.5867 37.7705 43.5867C37.9765 43.5867 38.0932 43.6556 38.1454 43.7889C38.175 43.7761 38.2014 43.7405 38.2014 43.6405C38.2014 43.6128 38.2118 43.6053 38.2432 43.6053H38.2756C38.3068 43.6053 38.3143 43.6128 38.3143 43.6405C38.3143 43.7908 38.2546 43.8629 38.1693 43.889C38.1728 43.9166 38.175 43.9446 38.175 43.9758V44.1488C38.175 44.4082 38.0401 44.5378 37.7705 44.5378C37.4818 44.5378 37.3632 44.4026 37.3632 44.1488ZM44.5587 44.1488V43.9758C44.5587 43.7169 44.6933 43.5867 44.966 43.5867C45.172 43.5867 45.2887 43.6556 45.3409 43.7889C45.3702 43.7761 45.3969 43.7405 45.3969 43.6405C45.3969 43.6128 45.4073 43.6053 45.4387 43.6053H45.4708C45.5023 43.6053 45.5098 43.6128 45.5098 43.6405C45.5098 43.7908 45.4501 43.8629 45.3648 43.889C45.3683 43.9166 45.3702 43.9446 45.3702 43.9758V44.1488C45.3702 44.4082 45.2356 44.5378 44.966 44.5378C44.6773 44.5378 44.5587 44.4026 44.5587 44.1488ZM30.2599 43.5867C30.5461 43.5873 30.6624 43.7226 30.6624 43.9758V44.1488C30.6624 44.4079 30.5281 44.5372 30.2596 44.5378H30.258C29.9693 44.5378 29.8507 44.4026 29.8507 44.1488V43.9758C29.8507 43.7166 29.9856 43.5867 30.258 43.5867H30.2599ZM37.3396 43.4496C37.3396 43.4886 37.3261 43.5012 37.2874 43.5012H37.1761V44.1506C37.1761 44.4082 37.0415 44.5378 36.77 44.5378C36.4907 44.5378 36.3646 44.4082 36.3646 44.1506V43.9777C36.3646 43.7166 36.4917 43.5867 36.748 43.5867C36.8905 43.5867 36.9874 43.6314 37.0377 43.722V43.5012H36.7851C36.7424 43.5012 36.7329 43.4886 36.7329 43.4496V43.4348C36.7329 43.3958 36.7424 43.3826 36.7851 43.3826H37.0377V43.281C37.0377 43.2307 37.0462 43.2216 37.0965 43.2216H37.1173C37.1629 43.2216 37.1761 43.2307 37.1761 43.281V43.3826H37.2874C37.3261 43.3826 37.3396 43.3958 37.3396 43.4348V43.4496ZM38.5109 44.4601C38.5109 44.5098 38.5014 44.5193 38.4511 44.5193H38.431C38.3848 44.5193 38.3712 44.5098 38.3712 44.4601V43.9336C38.3712 43.7015 38.5014 43.5867 38.7587 43.5867C39.032 43.5867 39.1449 43.7091 39.1449 43.9336V44.4601C39.1449 44.5098 39.1355 44.5193 39.0852 44.5193H39.0635C39.0132 44.5193 39.0034 44.5098 39.0034 44.4601V43.9336C39.0034 43.7852 38.9468 43.7182 38.7587 43.7182C38.5716 43.7182 38.5109 43.7871 38.5109 43.9336V44.4601ZM42.2244 44.4601C42.2244 44.5098 42.2149 44.5193 42.1646 44.5193H42.1448C42.0983 44.5193 42.085 44.5098 42.085 44.4601V43.9336C42.085 43.7015 42.2149 43.5867 42.4722 43.5867C42.7455 43.5867 42.8584 43.7091 42.8584 43.9336V44.4601C42.8584 44.5098 42.849 44.5193 42.7987 44.5193H42.777C42.7267 44.5193 42.7172 44.5098 42.7172 44.4601V43.9336C42.7172 43.7852 42.6603 43.7182 42.4722 43.7182C42.2851 43.7182 42.2244 43.7871 42.2244 43.9336V44.4601ZM45.7064 44.4601C45.7064 44.5098 45.6969 44.5193 45.6466 44.5193H45.6265C45.5803 44.5193 45.5667 44.5098 45.5667 44.4601V43.9336C45.5667 43.7015 45.6969 43.5867 45.9539 43.5867C46.2275 43.5867 46.3404 43.7091 46.3404 43.9336V44.4601C46.3404 44.5098 46.331 44.5193 46.2807 44.5193H46.259C46.2084 44.5193 46.1989 44.5098 46.1989 44.4601V43.9336C46.1989 43.7852 46.142 43.7182 45.9539 43.7182C45.7671 43.7182 45.7064 43.7871 45.7064 43.9336V44.4601ZM34.1045 44.4601C34.1045 44.5098 34.0948 44.5193 34.0448 44.5193H34.0246C33.9781 44.5193 33.9649 44.5098 33.9649 44.4601V43.9336C33.9649 43.7015 34.0948 43.5867 34.352 43.5867C34.6257 43.5867 34.7386 43.7091 34.7386 43.9336V44.4601C34.7386 44.5098 34.7291 44.5193 34.6788 44.5193H34.6568C34.6068 44.5193 34.597 44.5098 34.597 44.4601V43.9336C34.597 43.7852 34.5401 43.7182 34.352 43.7182C34.1652 43.7182 34.1045 43.7871 34.1045 43.9336V44.4601ZM43.5884 43.281C43.5884 43.2307 43.6007 43.2219 43.6472 43.2219H43.6683C43.7177 43.2219 43.7271 43.2307 43.7271 43.281V43.7128C43.7831 43.6295 43.879 43.5867 44.0184 43.5867C44.2464 43.5867 44.3612 43.6943 44.3612 43.9113V44.4601C44.3612 44.5098 44.3518 44.5193 44.3024 44.5193H44.2794C44.2304 44.5193 44.2206 44.5098 44.2206 44.4601V43.928C44.2206 43.7814 44.1552 43.7182 43.9835 43.7182C43.8048 43.7182 43.7271 43.7889 43.7271 43.9591V44.4601C43.7271 44.5098 43.7177 44.5193 43.6683 44.5193H43.6472C43.6007 44.5193 43.5884 44.5098 43.5884 44.4601V43.281ZM25.655 43.281C25.655 43.2307 25.6673 43.2219 25.7139 43.2219H25.7346C25.784 43.2219 25.7937 43.2307 25.7937 43.281V43.7128C25.8497 43.6295 25.9456 43.5867 26.085 43.5867C26.313 43.5867 26.4275 43.6943 26.4275 43.9113V44.4601C26.4275 44.5098 26.4181 44.5193 26.3687 44.5193H26.346C26.2966 44.5193 26.2872 44.5098 26.2872 44.4601V43.928C26.2872 43.7814 26.2218 43.7182 26.0498 43.7182C25.8714 43.7182 25.7937 43.7889 25.7937 43.9591V44.4601C25.7937 44.5098 25.784 44.5193 25.7346 44.5193H25.7139C25.6673 44.5193 25.655 44.5098 25.655 44.4601V43.281ZM40.8138 43.6644C40.8138 43.6185 40.8223 43.6053 40.8726 43.6053H40.8937C40.9389 43.6053 40.9525 43.6185 40.9525 43.6644V44.4601C40.9525 44.5098 40.9389 44.5193 40.8937 44.5193H40.8726C40.8223 44.5193 40.8138 44.5098 40.8138 44.4601V43.6644ZM41.7488 44.0984H41.5324C41.3673 44.0984 41.2912 44.1428 41.2912 44.2598C41.2912 44.3655 41.3598 44.4174 41.4991 44.4174C41.6689 44.4174 41.7488 44.3783 41.7488 44.2393V44.0984ZM36.5033 44.1488C36.5033 44.3268 36.565 44.4063 36.77 44.4063C36.9723 44.4063 37.0377 44.3268 37.0377 44.1488V43.9758C37.0377 43.7981 36.9723 43.7182 36.77 43.7182C36.5687 43.7182 36.5033 43.7981 36.5033 43.9758V44.1488ZM33.6299 43.9758C33.6299 43.7981 33.5661 43.7182 33.3638 43.7182C33.1591 43.7182 33.0952 43.7981 33.0952 43.9758V44.1488C33.0952 44.3265 33.1629 44.4063 33.3638 44.4063C33.5661 44.4063 33.6299 44.3265 33.6299 44.1488V43.9758ZM27.299 43.9758C27.299 43.7978 27.2355 43.7182 27.0332 43.7182C26.8282 43.7182 26.7646 43.7978 26.7646 43.9758V44.1488C26.7646 44.3265 26.831 44.4063 27.0332 44.4063C27.2355 44.4063 27.299 44.3265 27.299 44.1488V43.9758ZM38.0363 43.9758C38.0363 43.7978 37.9727 43.7182 37.7705 43.7182C37.5654 43.7182 37.5019 43.7978 37.5019 43.9758V44.1488C37.5019 44.3265 37.5692 44.4063 37.7705 44.4063C37.9727 44.4063 38.0363 44.3265 38.0363 44.1488V43.9758ZM45.2318 43.9758C45.2318 43.7978 45.1679 43.7182 44.966 43.7182C44.7609 43.7182 44.6974 43.7978 44.6974 43.9758V44.1488C44.6974 44.3265 44.7647 44.4063 44.966 44.4063C45.1679 44.4063 45.2318 44.3265 45.2318 44.1488V43.9758ZM30.258 43.7182C30.0529 43.7182 29.9894 43.7978 29.9894 43.9758V44.1488C29.9894 44.3268 30.0567 44.4063 30.258 44.4063H30.2605C30.4605 44.4057 30.5237 44.3258 30.5237 44.1488V43.9758C30.5237 43.7987 30.4605 43.7188 30.2605 43.7182H30.258ZM40.4625 43.9075C40.4625 43.7761 40.381 43.7109 40.2196 43.7109C40.0542 43.7109 39.9728 43.7761 39.9728 43.9075V43.9298C39.9728 44.0632 40.0325 44.1302 40.2196 44.1302C40.4065 44.1302 40.4625 44.0632 40.4625 43.9298V43.9075ZM35.5607 43.9075C35.5607 43.7761 35.4789 43.7109 35.3176 43.7109C35.1525 43.7109 35.0707 43.7761 35.0707 43.9075V43.9298C35.0707 44.0632 35.1305 44.1302 35.3176 44.1302C35.5044 44.1302 35.5607 44.0632 35.5607 43.9298V43.9075ZM41.5324 43.5012C41.4972 43.5012 41.4934 43.4886 41.4878 43.4659C41.4821 43.4144 41.5155 43.392 41.5714 43.3329C41.5856 43.3181 41.595 43.3049 41.595 43.2901C41.595 43.2587 41.5799 43.2436 41.5617 43.242C41.5428 43.2401 41.506 43.2455 41.4802 43.2587C41.4595 43.2659 41.4431 43.2659 41.4299 43.2382L41.4224 43.2234C41.412 43.1955 41.4299 43.186 41.4488 43.1772C41.4934 43.1587 41.523 43.1546 41.5579 43.1546C41.6303 43.1546 41.69 43.1955 41.6881 43.2901C41.6881 43.3716 41.5799 43.4049 41.5752 43.4659C41.5752 43.4807 41.5598 43.498 41.5409 43.5012H41.5324ZM33.233 43.3436C33.2776 43.2753 33.3031 43.253 33.3638 43.253C33.4255 43.253 33.4513 43.2716 33.4959 43.3436L33.5661 43.4534C33.589 43.4867 33.5812 43.4961 33.5425 43.4961H33.5274C33.4884 43.4961 33.472 43.4886 33.4513 43.4534L33.4085 43.3813C33.3792 43.3288 33.3497 43.3288 33.3204 43.3813L33.2795 43.4534C33.2585 43.4886 33.2415 43.4961 33.2028 43.4961H33.1864C33.1474 43.4961 33.1418 43.4845 33.1629 43.4534L33.233 43.3436ZM30.2596 43.253C30.3199 43.2533 30.3457 43.2722 30.3898 43.3436L30.4602 43.4534C30.4829 43.4864 30.4753 43.4958 30.4376 43.4961H30.4212C30.3822 43.4961 30.3662 43.4886 30.3454 43.4534L30.3026 43.381C30.2879 43.3552 30.2734 43.3423 30.2589 43.342H30.2583C30.2438 43.342 30.229 43.3549 30.2143 43.381L30.1734 43.4534C30.1529 43.4883 30.1359 43.4958 30.0976 43.4961H30.0806C30.0416 43.4961 30.0359 43.4845 30.0567 43.4534L30.1271 43.3436C30.1715 43.2753 30.1973 43.253 30.258 43.253H30.2596ZM40.9732 43.32C40.9732 43.3697 40.9342 43.4087 40.8842 43.4087C40.8317 43.4087 40.7911 43.3697 40.7911 43.32C40.7911 43.2697 40.8317 43.2288 40.8842 43.2288C40.9342 43.2288 40.9732 43.2697 40.9732 43.32ZM33.7057 43.2326C33.6865 43.2624 33.661 43.2772 33.6258 43.2772H33.6069C33.5642 43.2772 33.5585 43.2678 33.5793 43.2307L33.6573 43.0807C33.6812 43.036 33.7 43.0253 33.7504 43.0253H33.7683C33.8186 43.0253 33.8262 43.036 33.7979 43.0788L33.7057 43.2326ZM34.559 22.5597C34.4785 22.6393 34.3464 22.6374 34.2659 22.5566C32.9207 21.2017 30.7247 21.1935 29.3695 22.5374C28.0155 23.8826 28.0064 26.0785 29.3515 27.4338L30.4042 28.4953C30.4111 28.5025 30.4181 28.5104 30.4222 28.5186C30.4171 28.5186 30.4121 28.5195 30.4071 28.5195C30.2155 28.5327 30.0218 28.5277 29.8315 28.5053L29.0581 27.725C27.5528 26.2088 27.5616 23.7496 29.0782 22.2443C30.5958 20.739 33.0537 20.7488 34.559 22.2653L34.5621 22.2682C34.6426 22.349 34.6408 22.4789 34.559 22.5597ZM31.7582 28.1232C31.7551 28.1254 31.7522 28.1264 31.7491 28.1286C31.622 28.1981 31.4931 28.2585 31.36 28.3097L29.9262 26.8642C29.0289 25.9597 28.9008 24.5431 29.6208 23.4945C29.6852 23.4008 29.8142 23.3765 29.9079 23.441C30.0029 23.5055 30.0259 23.6344 29.9614 23.7294C29.3534 24.6135 29.4623 25.8093 30.2196 26.5726L31.7582 28.1232ZM34.4382 25.6168L34.1457 25.909L32.5294 24.2798C32.1353 23.8816 31.4899 23.8798 31.0927 24.2738C30.6955 24.6692 30.6923 25.3133 31.0877 25.7106L32.129 26.761C32.2099 26.8419 32.2099 26.973 32.1281 27.0535C32.0476 27.1341 31.9164 27.1331 31.8359 27.0526L30.7933 26.0021C30.2388 25.4423 30.2416 24.5358 30.8011 23.9804C31.361 23.425 32.2684 23.4287 32.8229 23.9886L34.4382 25.6168ZM33.5739 26.4808L33.2817 26.7733L31.6614 25.141C31.5808 25.0605 31.5818 24.9293 31.6623 24.8485C31.7441 24.768 31.8752 24.7689 31.9548 24.8494L33.5739 26.4808ZM35.3031 24.7516L35.0805 24.9746L35.0109 25.0432L33.3975 23.4177C32.7986 22.8148 31.9246 22.6031 31.1147 22.8651C31.0068 22.9004 30.8898 22.8409 30.8546 22.7333C30.8194 22.6242 30.8788 22.5072 30.988 22.472C31.9457 22.1616 32.9823 22.4125 33.6912 23.1265L35.3031 24.7516ZM36.1684 23.8867L35.8759 24.1789L35.3626 23.6627C35.2821 23.581 35.283 23.4501 35.3635 23.3702C35.4453 23.2897 35.5755 23.2897 35.656 23.3715L36.1684 23.8867Z" fill="#00A0DD" stroke="#00A0DD" stroke-width="0.0677419" stroke-miterlimit="10"/>
</g>
<defs>
<filter id="filter0_dd_189_33" x="0" y="0" width="71" height="75" filterUnits="userSpaceOnUse" color-interpolation-filters="sRGB">
<feFlood flood-opacity="0" result="BackgroundImageFix"/>
<feColorMatrix in="SourceAlpha" type="matrix" values="0 0 0 0 0 0 0 0 0 0 0 0 0 0 0 0 0 0 127 0" result="hardAlpha"/>
<feOffset dy="8"/>
<feGaussianBlur stdDeviation="8"/>
<feColorMatrix type="matrix" values="0 0 0 0 0 0 0 0 0 0 0 0 0 0 0 0 0 0 0.05 0"/>
<feBlend mode="normal" in2="BackgroundImageFix" result="effect1_dropShadow_189_33"/>
<feColorMatrix in="SourceAlpha" type="matrix" values="0 0 0 0 0 0 0 0 0 0 0 0 0 0 0 0 0 0 127 0" result="hardAlpha"/>
<feOffset dy="4"/>
<feGaussianBlur stdDeviation="8"/>
<feColorMatrix type="matrix" values="0 0 0 0 0 0 0 0 0 0 0 0 0 0 0 0 0 0 0.05 0"/>
<feBlend mode="normal" in2="effect1_dropShadow_189_33" result="effect2_dropShadow_189_33"/>
<feBlend mode="normal" in="SourceGraphic" in2="effect2_dropShadow_189_33" result="shape"/>
</filter>
<clipPath id="clip0_189_33">
<rect width="39" height="39" fill="white" transform="translate(16 12)"/>
</clipPath>
</defs>
</svg>
